<svg width="20" height="15" viewBox="0 0 20 15" fill="none" xmlns="http://www.w3.org/2000/svg">
<path d="M3.15789 0H16.8421C17.6796 0 18.4829 0.316071 19.0751 0.87868C19.6673 1.44129 20 2.20435 20 3V12C20 12.7956 19.6673 13.5587 19.0751 14.1213C18.4829 14.6839 17.6796 15 16.8421 15H3.15789C2.32037 15 1.51715 14.6839 0.924926 14.1213C0.332706 13.5587 0 12.7956 0 12V3C0 2.20435 0.332706 1.44129 0.924926 0.87868C1.51715 0.316071 2.32037 0 3.15789 0ZM3.15789 1C2.63158 1 2.16842 1.17 1.81053 1.47L10 6.5L18.1895 1.47C17.8316 1.17 17.3684 1 16.8421 1H3.15789ZM10 7.71L1.18947 2.28C1.10526 2.5 1.05263 2.75 1.05263 3V12C1.05263 12.5304 1.27444 13.0391 1.66925 13.4142C2.06406 13.7893 2.59954 14 3.15789 14H16.8421C17.4005 14 17.9359 13.7893 18.3308 13.4142C18.7256 13.0391 18.9474 12.5304 18.9474 12V3C18.9474 2.75 18.8947 2.5 18.8105 2.28L10 7.71Z" fill="#A4A4A4"/>
</svg>
