<svg width="100" height="31" viewBox="0 0 100 31" fill="none" xmlns="http://www.w3.org/2000/svg">
<path d="M33.9703 7.03792V19H31.0565V7.03792H33.9703ZM38.9958 10.8378C39.2684 10.3948 39.6603 10.037 40.1715 9.76432C40.6827 9.49168 41.2678 9.35536 41.9267 9.35536C42.7105 9.35536 43.4205 9.55416 44.0567 9.95176C44.6928 10.3494 45.1927 10.9174 45.5562 11.6558C45.9311 12.3942 46.1185 13.2518 46.1185 14.2288C46.1185 15.2058 45.9311 16.0691 45.5562 16.8189C45.1927 17.5573 44.6928 18.131 44.0567 18.5399C43.4205 18.9375 42.7105 19.1363 41.9267 19.1363C41.2564 19.1363 40.6714 19.0057 40.1715 18.7444C39.6717 18.4718 39.2798 18.1139 38.9958 17.6709V19H36.0819V6.3904H38.9958V10.8378ZM43.1535 14.2288C43.1535 13.5018 42.9491 12.9338 42.5401 12.5248C42.1425 12.1045 41.6483 11.8943 41.0576 11.8943C40.4783 11.8943 39.9841 12.1045 39.5751 12.5248C39.1775 12.9451 38.9787 13.5188 38.9787 14.2458C38.9787 14.9729 39.1775 15.5466 39.5751 15.9669C39.9841 16.3872 40.4783 16.5974 41.0576 16.5974C41.637 16.5974 42.1311 16.3872 42.5401 15.9669C42.9491 15.5352 43.1535 14.9558 43.1535 14.2288ZM50.561 11.0764C50.9018 10.5538 51.3278 10.1449 51.839 9.84952C52.3502 9.5428 52.9182 9.38944 53.543 9.38944V12.4737H52.7421C52.0151 12.4737 51.4698 12.6327 51.1063 12.9508C50.7428 13.2575 50.561 13.8028 50.561 14.5866V19H47.6472V9.49168H50.561V11.0764ZM54.3564 14.2288C54.3564 13.2518 54.5382 12.3942 54.9017 11.6558C55.2766 10.9174 55.7821 10.3494 56.4183 9.95176C57.0544 9.55416 57.7644 9.35536 58.5483 9.35536C59.2185 9.35536 59.8035 9.49168 60.3034 9.76432C60.8146 10.037 61.2065 10.3948 61.4791 10.8378V9.49168H64.393V19H61.4791V17.6538C61.1951 18.0969 60.7975 18.4547 60.2863 18.7274C59.7865 19 59.2015 19.1363 58.5312 19.1363C57.7587 19.1363 57.0544 18.9375 56.4183 18.5399C55.7821 18.131 55.2766 17.5573 54.9017 16.8189C54.5382 16.0691 54.3564 15.2058 54.3564 14.2288ZM61.4791 14.2458C61.4791 13.5188 61.2747 12.9451 60.8657 12.5248C60.4681 12.1045 59.9796 11.8943 59.4003 11.8943C58.8209 11.8943 58.3267 12.1045 57.9178 12.5248C57.5202 12.9338 57.3214 13.5018 57.3214 14.2288C57.3214 14.9558 57.5202 15.5352 57.9178 15.9669C58.3267 16.3872 58.8209 16.5974 59.4003 16.5974C59.9796 16.5974 60.4681 16.3872 60.8657 15.9669C61.2747 15.5466 61.4791 14.9729 61.4791 14.2458ZM72.3457 9.38944C73.4363 9.38944 74.311 9.75296 74.9699 10.48C75.6288 11.1957 75.9582 12.184 75.9582 13.445V19H73.0614V13.8369C73.0614 13.2007 72.8967 12.7066 72.5673 12.3544C72.2378 12.0022 71.7948 11.8262 71.2381 11.8262C70.6815 11.8262 70.2385 12.0022 69.909 12.3544C69.5796 12.7066 69.4149 13.2007 69.4149 13.8369V19H66.501V6.3904H69.4149V10.7697C69.7102 10.3494 70.1135 10.0142 70.6247 9.76432C71.1359 9.5144 71.7096 9.38944 72.3457 9.38944ZM79.4485 8.50336C78.9373 8.50336 78.517 8.35568 78.1875 8.06032C77.8694 7.7536 77.7104 7.37872 77.7104 6.93568C77.7104 6.48128 77.8694 6.1064 78.1875 5.81104C78.517 5.50432 78.9373 5.35096 79.4485 5.35096C79.9483 5.35096 80.3573 5.50432 80.6754 5.81104C81.0048 6.1064 81.1695 6.48128 81.1695 6.93568C81.1695 7.37872 81.0048 7.7536 80.6754 8.06032C80.3573 8.35568 79.9483 8.50336 79.4485 8.50336ZM80.8969 9.49168V19H77.983V9.49168H80.8969ZM95.141 9.38944C96.3224 9.38944 97.2596 9.74728 97.9526 10.463C98.6569 11.1786 99.0091 12.1726 99.0091 13.445V19H96.1123V13.8369C96.1123 13.2234 95.9476 12.752 95.6181 12.4226C95.3 12.0818 94.857 11.9114 94.289 11.9114C93.721 11.9114 93.2723 12.0818 92.9428 12.4226C92.6248 12.752 92.4657 13.2234 92.4657 13.8369V19H89.5689V13.8369C89.5689 13.2234 89.4042 12.752 89.0748 12.4226C88.7567 12.0818 88.3136 11.9114 87.7456 11.9114C87.1776 11.9114 86.7289 12.0818 86.3995 12.4226C86.0814 12.752 85.9224 13.2234 85.9224 13.8369V19H83.0085V9.49168H85.9224V10.6845C86.2177 10.2869 86.604 9.97448 87.0811 9.74728C87.5582 9.50872 88.0978 9.38944 88.6999 9.38944C89.4156 9.38944 90.0517 9.5428 90.6084 9.84952C91.1764 10.1562 91.6194 10.5936 91.9375 11.1616C92.2669 10.639 92.7156 10.213 93.2836 9.8836C93.8516 9.55416 94.4708 9.38944 95.141 9.38944Z" fill="white"/>
<path d="M61.5194 23.1283V28H60.8787V24.3674L59.2595 28H58.809L57.1827 24.3603V28H56.5421V23.1283H57.232L59.0342 27.1552L60.8365 23.1283H61.5194ZM67.4705 23.6141V25.2544H69.2586V25.7824H67.4705V27.472H69.4698V28H66.8298V23.0861H69.4698V23.6141H67.4705ZM79.6405 23.1283V28H78.9998V24.3674L77.3806 28H76.9301L75.3038 24.3603V28H74.6632V23.1283H75.3531L77.1554 27.1552L78.9576 23.1283H79.6405ZM87.1756 28.0493C86.7203 28.0493 86.305 27.9437 85.9295 27.7325C85.554 27.5166 85.256 27.2186 85.0354 26.8384C84.8195 26.4535 84.7116 26.0218 84.7116 25.543C84.7116 25.0643 84.8195 24.6349 85.0354 24.2547C85.256 23.8699 85.554 23.5718 85.9295 23.3606C86.305 23.1447 86.7203 23.0368 87.1756 23.0368C87.6355 23.0368 88.0532 23.1447 88.4287 23.3606C88.8042 23.5718 89.0999 23.8675 89.3158 24.2477C89.5316 24.6278 89.6396 25.0596 89.6396 25.543C89.6396 26.0265 89.5316 26.4582 89.3158 26.8384C89.0999 27.2186 88.8042 27.5166 88.4287 27.7325C88.0532 27.9437 87.6355 28.0493 87.1756 28.0493ZM87.1756 27.4931C87.5182 27.4931 87.8256 27.4133 88.0978 27.2538C88.3747 27.0942 88.5906 26.8666 88.7455 26.5709C88.9051 26.2752 88.9849 25.9326 88.9849 25.543C88.9849 25.1488 88.9051 24.8062 88.7455 24.5152C88.5906 24.2195 88.3771 23.9919 88.1049 23.8323C87.8327 23.6727 87.5229 23.593 87.1756 23.593C86.8283 23.593 86.5185 23.6727 86.2463 23.8323C85.9741 23.9919 85.7582 24.2195 85.5986 24.5152C85.4438 24.8062 85.3663 25.1488 85.3663 25.543C85.3663 25.9326 85.4438 26.2752 85.5986 26.5709C85.7582 26.8666 85.9741 27.0942 86.2463 27.2538C86.5232 27.4133 86.833 27.4931 87.1756 27.4931ZM98.5673 28H97.9266L95.35 24.0928V28H94.7093V23.0861H95.35L97.9266 26.9862V23.0861H98.5673V28Z" fill="white"/>
<path d="M0 5H18.2051" stroke="white" stroke-width="2.08059"/>
<path d="M0 25.0526H18.2051" stroke="white" stroke-width="2.08059"/>
<path d="M11.1507 5L3.64111 14.7931L11.1507 25.2857" stroke="white" stroke-width="2.08059"/>
</svg>
